<svg width="22" height="22" viewBox="0 0 22 22" fill="none" xmlns="http://www.w3.org/2000/svg">
<g clip-path="url(#clip0_698_2806)">
<path d="M3.6665 6.41671C3.6665 5.93048 3.85966 5.46416 4.20347 5.12034C4.54729 4.77653 5.01361 4.58337 5.49984 4.58337H16.4998C16.9861 4.58337 17.4524 4.77653 17.7962 5.12034C18.14 5.46416 18.3332 5.93048 18.3332 6.41671V17.4167C18.3332 17.9029 18.14 18.3693 17.7962 18.7131C17.4524 19.0569 16.9861 19.25 16.4998 19.25H5.49984C5.01361 19.25 4.54729 19.0569 4.20347 18.7131C3.85966 18.3693 3.6665 17.9029 3.6665 17.4167V6.41671Z" stroke="#246CF9" stroke-width="1.5" stroke-linecap="round" stroke-linejoin="round"/>
<path d="M14.6665 2.75V6.41667" stroke="#246CF9" stroke-width="1.5" stroke-linecap="round" stroke-linejoin="round"/>
<path d="M7.3335 2.75V6.41667" stroke="#246CF9" stroke-width="1.5" stroke-linecap="round" stroke-linejoin="round"/>
<path d="M3.6665 10.0834H18.3332" stroke="#246CF9" stroke-width="1.5" stroke-linecap="round" stroke-linejoin="round"/>
<path d="M6.4165 12.8334H6.42842" stroke="#246CF9" stroke-width="1.5" stroke-linecap="round" stroke-linejoin="round"/>
<path d="M9.17578 12.8334H9.18036" stroke="#246CF9" stroke-width="1.5" stroke-linecap="round" stroke-linejoin="round"/>
<path d="M11.9258 12.8334H11.9304" stroke="#246CF9" stroke-width="1.5" stroke-linecap="round" stroke-linejoin="round"/>
<path d="M14.6804 12.8334H14.685" stroke="#246CF9" stroke-width="1.5" stroke-linecap="round" stroke-linejoin="round"/>
<path d="M11.9304 15.5834H11.935" stroke="#246CF9" stroke-width="1.5" stroke-linecap="round" stroke-linejoin="round"/>
<path d="M6.42578 15.5834H6.43036" stroke="#246CF9" stroke-width="1.5" stroke-linecap="round" stroke-linejoin="round"/>
<path d="M9.17578 15.5834H9.18036" stroke="#246CF9" stroke-width="1.5" stroke-linecap="round" stroke-linejoin="round"/>
</g>
<defs>
<clipPath id="clip0_698_2806">
<rect width="22" height="22" fill="white"/>
</clipPath>
</defs>
</svg>
