<svg width="104" height="103" viewBox="0 0 104 103" fill="none" xmlns="http://www.w3.org/2000/svg">
<path d="M59.4365 74.0775C59.4365 76.2082 59.8562 78.3181 60.6716 80.2867C61.487 82.2552 62.6822 84.0439 64.1888 85.5505C65.6955 87.0572 67.4842 88.2524 69.4527 89.0678C71.4213 89.8832 73.5311 90.3028 75.6619 90.3028C77.7926 90.3028 79.9025 89.8832 81.8711 89.0678C83.8396 88.2524 85.6283 87.0572 87.1349 85.5505C88.6416 84.0439 89.8368 82.2552 90.6522 80.2867C91.4676 78.3181 91.8872 76.2082 91.8872 74.0775C91.8872 71.9467 91.4676 69.8369 90.6522 67.8683C89.8368 65.8998 88.6416 64.1111 87.1349 62.6044C85.6283 61.0978 83.8396 59.9026 81.8711 59.0872C79.9025 58.2718 77.7926 57.8521 75.6619 57.8521C73.5311 57.8521 71.4213 58.2718 69.4527 59.0872C67.4842 59.9026 65.6955 61.0978 64.1888 62.6044C62.6822 64.1111 61.487 65.8998 60.6716 67.8683C59.8562 69.8369 59.4365 71.9467 59.4365 74.0775Z" stroke="#246CF9" stroke-width="7.43662" stroke-linecap="round" stroke-linejoin="round"/>
<path d="M100 98.4155L89.1831 87.5986" stroke="#246CF9" stroke-width="7.43662" stroke-linecap="round" stroke-linejoin="round"/>
<path d="M46.1409 93.6831H13.9155C11.2857 93.6831 8.7637 92.6384 6.90418 90.7789C5.04466 88.9194 4 86.3974 4 83.7676V14.3592C4 11.7294 5.04466 9.20736 6.90418 7.34784C8.7637 5.48833 11.2857 4.44366 13.9155 4.44366H83.324C85.9537 4.44366 88.4758 5.48833 90.3353 7.34784C92.1948 9.20736 93.2395 11.7294 93.2395 14.3592V44.1056" stroke="#E5E6ED" stroke-width="7.43662" stroke-linecap="round" stroke-linejoin="round"/>
<path d="M4 39.148H93.2395" stroke="#E5E6ED" stroke-width="7.43662" stroke-linecap="round" stroke-linejoin="round"/>
<path d="M38.7043 4.4437V93.6831" stroke="#E5E6ED" stroke-width="7.43662" stroke-linecap="round" stroke-linejoin="round"/>
</svg>
