<svg width="44" height="45" viewBox="0 0 44 45" fill="none" xmlns="http://www.w3.org/2000/svg">
<g clip-path="url(#clip0_305_674)">
<path d="M30.3508 7.54551L36.9545 14.1492C37.4444 14.639 37.833 15.2205 38.0981 15.8604C38.3632 16.5004 38.4996 17.1864 38.4996 17.8791C38.4996 18.5718 38.3632 19.2578 38.0981 19.8977C37.833 20.5377 37.4444 21.1192 36.9545 21.609L32.109 26.4545C31.6192 26.9444 31.0377 27.333 30.3977 27.5981C29.7577 27.8632 29.0718 27.9997 28.3791 27.9997C27.6864 27.9997 27.0004 27.8632 26.3604 27.5981C25.7205 27.333 25.139 26.9444 24.6492 26.4545L24.0973 25.9027L12.0743 37.9257C11.4652 38.5348 10.661 38.9099 9.80283 38.9854L9.482 39H7.33333C6.88429 39 6.45088 38.8351 6.11532 38.5367C5.77975 38.2383 5.56537 37.8271 5.51283 37.3812L5.5 37.1667V35.018C5.50021 34.1572 5.8033 33.3239 6.35617 32.664L6.57433 32.4257L7.33333 31.6667H11V28H14.6667V24.3333L18.5973 20.4027L18.0455 19.8508C17.5556 19.3611 17.167 18.7796 16.9019 18.1396C16.6368 17.4996 16.5004 16.8137 16.5004 16.1209C16.5004 15.4282 16.6368 14.7423 16.9019 14.1023C17.167 13.4623 17.5556 12.8808 18.0455 12.391L22.891 7.54551C23.3808 7.05565 23.9623 6.66706 24.6023 6.40194C25.2423 6.13682 25.9282 6.00037 26.6209 6.00037C27.3136 6.00037 27.9996 6.13682 28.6396 6.40194C29.2796 6.66706 29.861 7.05565 30.3508 7.54551Z" stroke="#246CF9" stroke-width="2" stroke-linecap="round" stroke-linejoin="round"/>
<path d="M27.5 17H27.5183" stroke="#246CF9" stroke-width="2" stroke-linecap="round" stroke-linejoin="round"/>
</g>
<defs>
<clipPath id="clip0_305_674">
<rect width="44" height="44" fill="white" transform="translate(0 0.5)"/>
</clipPath>
</defs>
</svg>
