<svg width="32" height="32" viewBox="0 0 32 32" fill="none" xmlns="http://www.w3.org/2000/svg">
<g clip-path="url(#clip0_389_1205)">
<path d="M29.3334 10.0466V22.6666C29.3335 23.6869 28.9436 24.6687 28.2437 25.411C27.5438 26.1533 26.5866 26.6001 25.5681 26.66L25.3334 26.6666H6.66675C5.64647 26.6667 4.66473 26.2769 3.9224 25.5769C3.18007 24.877 2.73327 23.9198 2.67341 22.9013L2.66675 22.6666V10.0466L15.2601 18.4426L15.4147 18.5306C15.597 18.6197 15.7972 18.666 16.0001 18.666C16.2029 18.666 16.4031 18.6197 16.5854 18.5306L16.7401 18.4426L29.3334 10.0466Z" fill="#A5ADCF"/>
<path d="M25.3336 5.33325C26.7736 5.33325 28.0363 6.09325 28.7403 7.23592L16.0003 15.7293L3.26025 7.23592C3.59456 6.69294 4.05387 6.23779 4.59986 5.90843C5.14586 5.57907 5.7627 5.38506 6.39892 5.34259L6.66692 5.33325H25.3336Z" fill="#A5ADCF"/>
</g>
<defs>
<clipPath id="clip0_389_1205">
<rect width="32" height="32" fill="white"/>
</clipPath>
</defs>
</svg>
