<svg width="32" height="32" viewBox="0 0 32 32" fill="none" xmlns="http://www.w3.org/2000/svg">
<g clip-path="url(#clip0_389_1201)">
<path d="M4 9.33329C4 8.62605 4.28095 7.94777 4.78105 7.44767C5.28115 6.94758 5.95942 6.66663 6.66667 6.66663H25.3333C26.0406 6.66663 26.7189 6.94758 27.219 7.44767C27.719 7.94777 28 8.62605 28 9.33329V22.6666C28 23.3739 27.719 24.0521 27.219 24.5522C26.7189 25.0523 26.0406 25.3333 25.3333 25.3333H6.66667C5.95942 25.3333 5.28115 25.0523 4.78105 24.5522C4.28095 24.0521 4 23.3739 4 22.6666V9.33329Z" stroke="#5D6588" stroke-width="2" stroke-linecap="round" stroke-linejoin="round"/>
<path d="M4 9.33325L16 17.3333L28 9.33325" stroke="#5D6588" stroke-width="2" stroke-linecap="round" stroke-linejoin="round"/>
</g>
<defs>
<clipPath id="clip0_389_1201">
<rect width="32" height="32" fill="white"/>
</clipPath>
</defs>
</svg>
