<svg width="44" height="45" viewBox="0 0 44 45" fill="none" xmlns="http://www.w3.org/2000/svg">
<g clip-path="url(#clip0_305_668)">
<path d="M14.6667 13.3333C14.6667 15.2783 15.4393 17.1435 16.8146 18.5188C18.1898 19.8941 20.0551 20.6667 22 20.6667C23.9449 20.6667 25.8102 19.8941 27.1855 18.5188C28.5607 17.1435 29.3334 15.2783 29.3334 13.3333C29.3334 11.3884 28.5607 9.52315 27.1855 8.14788C25.8102 6.77262 23.9449 6 22 6C20.0551 6 18.1898 6.77262 16.8146 8.14788C15.4393 9.52315 14.6667 11.3884 14.6667 13.3333Z" stroke="#246CF9" stroke-width="2" stroke-linecap="round" stroke-linejoin="round"/>
<path d="M11 39V35.3333C11 33.3884 11.7726 31.5232 13.1479 30.1479C14.5232 28.7726 16.3884 28 18.3333 28H25.6667C27.6116 28 29.4768 28.7726 30.8521 30.1479C32.2274 31.5232 33 33.3884 33 35.3333V39" stroke="#246CF9" stroke-width="2" stroke-linecap="round" stroke-linejoin="round"/>
</g>
<defs>
<clipPath id="clip0_305_668">
<rect width="44" height="44" fill="white" transform="translate(0 0.5)"/>
</clipPath>
</defs>
</svg>
