<svg width="32" height="32" viewBox="0 0 32 32" fill="none" xmlns="http://www.w3.org/2000/svg">
<path d="M12.2422 11.6363V9.45452C12.2422 8.87587 12.4651 8.32092 12.8619 7.91174C13.2586 7.50257 13.7968 7.27271 14.3579 7.27271H21.7628C22.324 7.27271 22.8621 7.50257 23.2589 7.91174C23.6556 8.32092 23.8786 8.87587 23.8786 9.45452V22.5454C23.8786 23.1241 23.6556 23.679 23.2589 24.0882C22.8621 24.4974 22.324 24.7273 21.7628 24.7273H14.3579C13.7968 24.7273 13.2586 24.4974 12.8619 24.0882C12.4651 23.679 12.2422 23.1241 12.2422 22.5454V20.3636" stroke="#FF1D44" stroke-width="2" stroke-linecap="round" stroke-linejoin="round"/>
<path d="M17.0904 16H4.48438L7.63589 13.0909" stroke="#FF1D44" stroke-width="2" stroke-linecap="round" stroke-linejoin="round"/>
<path d="M7.39347 18.9091L4.48438 16" stroke="#FF1D44" stroke-width="2" stroke-linecap="round" stroke-linejoin="round"/>
</svg>
