<svg width="60" height="58" viewBox="0 0 60 58" fill="none" xmlns="http://www.w3.org/2000/svg">
<path d="M34.1831 42.169C34.1831 43.3676 34.4192 44.5544 34.8779 45.6617C35.3365 46.769 36.0088 47.7751 36.8563 48.6226C37.7038 49.4701 38.7099 50.1424 39.8172 50.6011C40.9245 51.0597 42.1114 51.2958 43.3099 51.2958C44.5084 51.2958 45.6953 51.0597 46.8026 50.6011C47.9099 50.1424 48.916 49.4701 49.7635 48.6226C50.611 47.7751 51.2833 46.769 51.7419 45.6617C52.2006 44.5544 52.4367 43.3676 52.4367 42.169C52.4367 40.9705 52.2006 39.7837 51.7419 38.6764C51.2833 37.5691 50.611 36.5629 49.7635 35.7154C48.916 34.8679 47.9099 34.1957 46.8026 33.737C45.6953 33.2783 44.5084 33.0423 43.3099 33.0423C42.1114 33.0423 40.9245 33.2783 39.8172 33.737C38.7099 34.1957 37.7038 34.8679 36.8563 35.7154C36.0088 36.5629 35.3365 37.5691 34.8779 38.6764C34.4192 39.7837 34.1831 40.9705 34.1831 42.169Z" stroke="#246CF9" stroke-width="4.1831" stroke-linecap="round" stroke-linejoin="round"/>
<path d="M57 55.8592L50.9155 49.7747" stroke="#246CF9" stroke-width="4.1831" stroke-linecap="round" stroke-linejoin="round"/>
<path d="M26.7042 53.1972H8.57747C7.09823 53.1972 5.67958 52.6096 4.6336 51.5636C3.58762 50.5176 3 49.0989 3 47.6197V8.57746C3 7.09823 3.58762 5.67958 4.6336 4.6336C5.67958 3.58762 7.09823 3 8.57747 3H47.6197C49.099 3 50.5176 3.58762 51.5636 4.6336C52.6096 5.67958 53.1972 7.09823 53.1972 8.57746V25.3099" stroke="#E5E6ED" stroke-width="4.1831" stroke-linecap="round" stroke-linejoin="round"/>
<path d="M3.00003 22.5212H53.1972" stroke="#E5E6ED" stroke-width="4.1831" stroke-linecap="round" stroke-linejoin="round"/>
<path d="M22.5212 3V53.1972" stroke="#E5E6ED" stroke-width="4.1831" stroke-linecap="round" stroke-linejoin="round"/>
</svg>
