<svg width="30" height="31" viewBox="0 0 30 31" fill="none" xmlns="http://www.w3.org/2000/svg">
<g clip-path="url(#clip0_305_1138)">
<path d="M10.7 5.19006C9.33515 5.75505 8.09488 6.58331 7.05005 7.62756" stroke="#919292" stroke-width="1.95896" stroke-linecap="round" stroke-linejoin="round"/>
<path d="M4.6125 11.2776C4.0457 12.6405 3.75263 14.1016 3.75 15.5776" stroke="#919292" stroke-width="1.95896" stroke-linecap="round" stroke-linejoin="round"/>
<path d="M4.61255 19.8776C5.17753 21.2425 6.00579 22.4827 7.05005 23.5276" stroke="#919292" stroke-width="1.95896" stroke-linecap="round" stroke-linejoin="round"/>
<path d="M10.7002 25.9651C12.0631 26.5319 13.5242 26.825 15.0002 26.8276" stroke="#919292" stroke-width="1.95896" stroke-linecap="round" stroke-linejoin="round"/>
<path d="M19.3 25.9651C20.6649 25.4001 21.9052 24.5718 22.9501 23.5276" stroke="#919292" stroke-width="1.95896" stroke-linecap="round" stroke-linejoin="round"/>
<path d="M25.3877 19.8775C25.9545 18.5146 26.2476 17.0536 26.2502 15.5775" stroke="#919292" stroke-width="1.95896" stroke-linecap="round" stroke-linejoin="round"/>
<path d="M25.3877 11.2776C24.8227 9.91267 23.9945 8.6724 22.9502 7.62756" stroke="#919292" stroke-width="1.95896" stroke-linecap="round" stroke-linejoin="round"/>
<path d="M19.3 5.19001C17.9371 4.62321 16.476 4.33014 15 4.32751" stroke="#919292" stroke-width="1.95896" stroke-linecap="round" stroke-linejoin="round"/>
</g>
<defs>
<clipPath id="clip0_305_1138">
<rect width="30" height="30" fill="white" transform="translate(0 0.577515)"/>
</clipPath>
</defs>
</svg>
