<svg width="30" height="31" viewBox="0 0 30 31" fill="none" xmlns="http://www.w3.org/2000/svg">
<path d="M12.4999 26.5488C11.4119 26.302 10.367 25.8937 9.3999 25.3375" stroke="#191A1F" stroke-width="1.95895" stroke-linecap="round" stroke-linejoin="round"/>
<path d="M17.5 4.6062C19.9852 5.17379 22.2041 6.56831 23.7933 8.56145C25.3826 10.5546 26.248 13.0283 26.248 15.5774C26.248 18.1266 25.3826 20.6003 23.7933 22.5934C22.2041 24.5866 19.9852 25.9811 17.5 26.5487" stroke="#191A1F" stroke-width="1.95895" stroke-linecap="round" stroke-linejoin="round"/>
<path d="M5.72369 21.9437C5.04182 20.9531 4.52394 19.8591 4.18994 18.7037" stroke="#191A1F" stroke-width="1.95895" stroke-linecap="round" stroke-linejoin="round"/>
<path d="M3.90503 13.7024C4.10503 12.5149 4.49003 11.3899 5.03003 10.3587L5.24128 9.97742" stroke="#191A1F" stroke-width="1.95895" stroke-linecap="round" stroke-linejoin="round"/>
<path d="M8.63379 6.3012C9.80336 5.49608 11.1154 4.92085 12.5 4.6062" stroke="#191A1F" stroke-width="1.95895" stroke-linecap="round" stroke-linejoin="round"/>
<path d="M11.25 15.5775L13.75 18.0775L18.75 13.0775" stroke="#191A1F" stroke-width="1.95895" stroke-linecap="round" stroke-linejoin="round"/>
</svg>
