<svg width="35" height="36" viewBox="0 0 35 36" fill="none" xmlns="http://www.w3.org/2000/svg">
<g clip-path="url(#clip0_389_1550)">
<path d="M15.057 6.79563C15.6783 4.23479 19.3212 4.23479 19.9425 6.79563C20.0357 7.18033 20.2184 7.53759 20.4758 7.83833C20.7332 8.13907 21.0579 8.37479 21.4236 8.5263C21.7893 8.67781 22.1856 8.74082 22.5803 8.71023C22.9749 8.67963 23.3568 8.55627 23.6948 8.35021C25.945 6.97937 28.5218 9.55479 27.151 11.8065C26.9452 12.1443 26.8221 12.5259 26.7915 12.9203C26.761 13.3147 26.824 13.7107 26.9753 14.0762C27.1267 14.4417 27.3621 14.7663 27.6625 15.0236C27.9629 15.281 28.3198 15.4638 28.7041 15.5573C31.265 16.1785 31.265 19.8215 28.7041 20.4427C28.3194 20.5359 27.9622 20.7187 27.6614 20.976C27.3607 21.2334 27.125 21.5582 26.9735 21.9239C26.822 22.2896 26.7589 22.6859 26.7895 23.0805C26.8201 23.4752 26.9435 23.857 27.1495 24.195C28.5204 26.4452 25.945 29.0221 23.6933 27.6513C23.3555 27.4455 22.9738 27.3223 22.5795 27.2918C22.1851 27.2613 21.7891 27.3242 21.4236 27.4756C21.0581 27.6269 20.7335 27.8623 20.4761 28.1627C20.2188 28.4631 20.0359 28.82 19.9425 29.2044C19.3212 31.7652 15.6783 31.7652 15.057 29.2044C14.9638 28.8197 14.7811 28.4624 14.5237 28.1617C14.2663 27.8609 13.9416 27.6252 13.5759 27.4737C13.2102 27.3222 12.8139 27.2592 12.4192 27.2898C12.0246 27.3204 11.6427 27.4437 11.3048 27.6498C9.05455 29.0206 6.47767 26.4452 7.84851 24.1935C8.05428 23.8557 8.17743 23.4741 8.20796 23.0797C8.23849 22.6853 8.17553 22.2893 8.02419 21.9238C7.87286 21.5583 7.63743 21.2337 7.33703 20.9764C7.03663 20.719 6.67974 20.5362 6.29538 20.4427C3.73455 19.8215 3.73455 16.1785 6.29538 15.5573C6.68009 15.4641 7.03735 15.2813 7.33809 15.024C7.63883 14.7666 7.87454 14.4418 8.02605 14.0761C8.17756 13.7104 8.24058 13.3141 8.20998 12.9195C8.17938 12.5248 8.05603 12.143 7.84996 11.805C6.47913 9.55479 9.05455 6.97792 11.3062 8.34875C12.7645 9.23542 14.6545 8.45083 15.057 6.79563Z" stroke="#5D6588" stroke-width="2" stroke-linecap="round" stroke-linejoin="round"/>
<path d="M13.1248 18C13.1248 19.1603 13.5857 20.2731 14.4062 21.0936C15.2266 21.9141 16.3394 22.375 17.4998 22.375C18.6601 22.375 19.7729 21.9141 20.5933 21.0936C21.4138 20.2731 21.8748 19.1603 21.8748 18C21.8748 16.8397 21.4138 15.7269 20.5933 14.9064C19.7729 14.0859 18.6601 13.625 17.4998 13.625C16.3394 13.625 15.2266 14.0859 14.4062 14.9064C13.5857 15.7269 13.1248 16.8397 13.1248 18Z" stroke="#5D6588" stroke-width="2" stroke-linecap="round" stroke-linejoin="round"/>
</g>
<defs>
<clipPath id="clip0_389_1550">
<rect width="35" height="35" fill="white" transform="translate(0 0.5)"/>
</clipPath>
</defs>
</svg>
