<svg width="35" height="36" viewBox="0 0 35 36" fill="none" xmlns="http://www.w3.org/2000/svg">
<g clip-path="url(#clip0_389_1748)">
<path d="M21.3589 6.45148C21.3981 6.61296 21.4748 6.76293 21.5828 6.88919C21.6908 7.01545 21.8271 7.11444 21.9805 7.1781C22.134 7.24177 22.3003 7.26831 22.466 7.25558C22.6317 7.24284 22.792 7.19118 22.9339 7.10481C26.4908 4.93919 30.561 9.00794 28.3954 12.5648C28.309 12.7067 28.2573 12.8669 28.2445 13.0325C28.2317 13.198 28.2581 13.3643 28.3216 13.5178C28.3851 13.6712 28.4839 13.8075 28.61 13.9156C28.7361 14.0237 28.8859 14.1005 29.0473 14.1398C33.0942 15.1213 33.0942 20.8773 29.0473 21.8602C28.8858 21.8994 28.7358 21.976 28.6096 22.0841C28.4833 22.1921 28.3843 22.3283 28.3207 22.4818C28.257 22.6353 28.2304 22.8016 28.2432 22.9673C28.2559 23.133 28.3076 23.2933 28.3939 23.4352C30.5596 26.9921 26.4908 31.0623 22.9339 28.8967C22.7921 28.8103 22.6319 28.7586 22.4663 28.7458C22.3007 28.733 22.1345 28.7594 21.981 28.8229C21.8275 28.8864 21.6912 28.9852 21.5832 29.1113C21.4751 29.2374 21.3983 29.3872 21.3589 29.5486C20.3775 33.5954 14.6214 33.5954 13.6385 29.5486C13.5994 29.3871 13.5227 29.2371 13.4147 29.1108C13.3067 28.9846 13.1704 28.8856 13.0169 28.8219C12.8635 28.7583 12.6971 28.7317 12.5315 28.7445C12.3658 28.7572 12.2055 28.8089 12.0635 28.8952C8.50665 31.0609 4.43645 26.9921 6.60207 23.4352C6.68845 23.2934 6.74015 23.1332 6.75298 22.9676C6.7658 22.802 6.73938 22.6357 6.67587 22.4823C6.61236 22.3288 6.51354 22.1925 6.38745 22.0844C6.26136 21.9764 6.11155 21.8995 5.9502 21.8602C1.90332 20.8788 1.90332 15.1227 5.9502 14.1398C6.11168 14.1007 6.26165 14.024 6.38791 13.916C6.51417 13.808 6.61316 13.6717 6.67682 13.5182C6.74048 13.3647 6.76703 13.1984 6.75429 13.0327C6.74156 12.8671 6.6899 12.7068 6.60353 12.5648C4.4379 9.00794 8.50665 4.93773 12.0635 7.10335C12.2052 7.19039 12.3655 7.24262 12.5313 7.25577C12.6971 7.26893 12.8636 7.24263 13.0173 7.17903C13.1709 7.11544 13.3073 7.01635 13.4153 6.88989C13.5233 6.76343 13.5998 6.61319 13.6385 6.45148C14.62 2.4046 20.376 2.4046 21.3589 6.45148ZM17.4987 13.625C16.3384 13.625 15.2256 14.086 14.4051 14.9064C13.5847 15.7269 13.1237 16.8397 13.1237 18C13.1237 19.1603 13.5847 20.2731 14.4051 21.0936C15.2256 21.9141 16.3384 22.375 17.4987 22.375C18.6591 22.375 19.7719 21.9141 20.5923 21.0936C21.4128 20.2731 21.8737 19.1603 21.8737 18C21.8737 16.8397 21.4128 15.7269 20.5923 14.9064C19.7719 14.086 18.6591 13.625 17.4987 13.625Z" fill="#D9D9D9"/>
</g>
<defs>
<clipPath id="clip0_389_1748">
<rect width="35" height="35" fill="white" transform="translate(0 0.5)"/>
</clipPath>
</defs>
</svg>
