<svg width="31" height="30" viewBox="0 0 31 30" fill="none" xmlns="http://www.w3.org/2000/svg">
<g clip-path="url(#clip0_389_1256)">
<path d="M13.2529 25.9713C12.165 25.7245 11.12 25.3162 10.153 24.76" stroke="#30E076" stroke-width="1.95895" stroke-linecap="round" stroke-linejoin="round"/>
<path d="M18.2529 4.02869C20.7381 4.59628 22.957 5.9908 24.5462 7.98394C26.1355 9.97708 27.001 12.4507 27.001 14.9999C27.001 17.5491 26.1355 20.0228 24.5462 22.0159C22.957 24.009 20.7381 25.4036 18.2529 25.9712" stroke="#30E076" stroke-width="1.95895" stroke-linecap="round" stroke-linejoin="round"/>
<path d="M6.47674 21.3662C5.79487 20.3756 5.27699 19.2816 4.94299 18.1262" stroke="#30E076" stroke-width="1.95895" stroke-linecap="round" stroke-linejoin="round"/>
<path d="M4.65796 13.1249C4.85796 11.9374 5.24296 10.8124 5.78296 9.78115L5.99421 9.3999" stroke="#30E076" stroke-width="1.95895" stroke-linecap="round" stroke-linejoin="round"/>
<path d="M9.3866 5.72368C10.5562 4.91856 11.8682 4.34333 13.2528 4.02869" stroke="#30E076" stroke-width="1.95895" stroke-linecap="round" stroke-linejoin="round"/>
<path d="M12.0029 15L14.5029 17.5L19.5029 12.5" stroke="#30E076" stroke-width="1.95895" stroke-linecap="round" stroke-linejoin="round"/>
</g>
<defs>
<clipPath id="clip0_389_1256">
<rect width="30" height="30" fill="white" transform="translate(0.75293)"/>
</clipPath>
</defs>
</svg>
