<svg width="30" height="30" viewBox="0 0 30 30" fill="none" xmlns="http://www.w3.org/2000/svg">
<g clip-path="url(#clip0_389_1865)">
<path d="M12.5005 25.9713C11.4125 25.7245 10.3675 25.3162 9.40045 24.76" stroke="#FF1D44" stroke-width="2" stroke-linecap="round" stroke-linejoin="round"/>
<path d="M17.5 4.02875C19.9852 4.59634 22.2041 5.99086 23.7933 7.984C25.3826 9.97715 26.248 12.4508 26.248 15C26.248 17.5492 25.3826 20.0228 23.7933 22.016C22.2041 24.0091 19.9852 25.4037 17.5 25.9712" stroke="#FF1D44" stroke-width="2" stroke-linecap="round" stroke-linejoin="round"/>
<path d="M5.72406 21.3662C5.04219 20.3756 4.52431 19.2816 4.19031 18.1262" stroke="#FF1D44" stroke-width="2" stroke-linecap="round" stroke-linejoin="round"/>
<path d="M3.90527 13.125C4.10527 11.9375 4.49027 10.8125 5.03027 9.78127L5.24152 9.40002" stroke="#FF1D44" stroke-width="2" stroke-linecap="round" stroke-linejoin="round"/>
<path d="M8.63379 5.72375C9.80336 4.91862 11.1154 4.34339 12.5 4.02875" stroke="#FF1D44" stroke-width="2" stroke-linecap="round" stroke-linejoin="round"/>
<path d="M15.0002 10V15" stroke="#FF1D44" stroke-width="2" stroke-linecap="round" stroke-linejoin="round"/>
<path d="M15.0002 20V20.0125" stroke="#FF1D44" stroke-width="2" stroke-linecap="round" stroke-linejoin="round"/>
</g>
<defs>
<clipPath id="clip0_389_1865">
<rect width="30" height="30" fill="white"/>
</clipPath>
</defs>
</svg>
