<svg width="30" height="30" viewBox="0 0 30 30" fill="none" xmlns="http://www.w3.org/2000/svg">
<g clip-path="url(#clip0_389_1274)">
<path d="M24.9163 16.3012C24.6803 18.1012 23.9587 19.8029 22.829 21.2239C21.6993 22.645 20.2041 23.7317 18.5038 24.3675C16.8034 25.0033 14.962 25.1643 13.1771 24.8332C11.3922 24.5021 9.73115 23.6913 8.37202 22.4879C7.01288 21.2844 6.00697 19.7337 5.46217 18.002C4.91737 16.2703 4.85423 14.423 5.27952 12.6582C5.70481 10.8934 6.6025 9.27759 7.87629 7.98416C9.15009 6.69073 10.752 5.76845 12.5101 5.31621C17.3838 4.06621 22.4288 6.57496 24.2913 11.25" stroke="#919292" stroke-width="1.95896" stroke-linecap="round" stroke-linejoin="round"/>
<path d="M25 5V11.25H18.75" stroke="#919292" stroke-width="1.95896" stroke-linecap="round" stroke-linejoin="round"/>
</g>
<defs>
<clipPath id="clip0_389_1274">
<rect width="30" height="30" fill="white"/>
</clipPath>
</defs>
</svg>
