<svg width="31" height="30" viewBox="0 0 31 30" fill="none" xmlns="http://www.w3.org/2000/svg">
<g clip-path="url(#clip0_389_1264)">
<path d="M11.0766 4.61255C9.71174 5.17753 8.47147 6.00579 7.42664 7.05005" stroke="#919292" stroke-width="1.95896" stroke-linecap="round" stroke-linejoin="round"/>
<path d="M4.98921 10.7001C4.42241 12.0629 4.12934 13.524 4.12671 15.0001" stroke="#919292" stroke-width="1.95896" stroke-linecap="round" stroke-linejoin="round"/>
<path d="M4.98914 19.3C5.55412 20.6649 6.38238 21.9052 7.42664 22.9501" stroke="#919292" stroke-width="1.95896" stroke-linecap="round" stroke-linejoin="round"/>
<path d="M11.0767 25.3876C12.4395 25.9544 13.9006 26.2474 15.3767 26.2501" stroke="#919292" stroke-width="1.95896" stroke-linecap="round" stroke-linejoin="round"/>
<path d="M19.6766 25.3876C21.0415 24.8226 22.2818 23.9943 23.3266 22.9501" stroke="#919292" stroke-width="1.95896" stroke-linecap="round" stroke-linejoin="round"/>
<path d="M25.7642 19.3C26.331 17.9371 26.624 16.476 26.6267 15" stroke="#919292" stroke-width="1.95896" stroke-linecap="round" stroke-linejoin="round"/>
<path d="M25.7642 10.7C25.1992 9.33515 24.3709 8.09488 23.3267 7.05005" stroke="#919292" stroke-width="1.95896" stroke-linecap="round" stroke-linejoin="round"/>
<path d="M19.6767 4.6125C18.3138 4.0457 16.8527 3.75263 15.3767 3.75" stroke="#919292" stroke-width="1.95896" stroke-linecap="round" stroke-linejoin="round"/>
</g>
<defs>
<clipPath id="clip0_389_1264">
<rect width="30" height="30" fill="white" transform="translate(0.376587)"/>
</clipPath>
</defs>
</svg>
