<svg width="22" height="22" viewBox="0 0 22 22" fill="none" xmlns="http://www.w3.org/2000/svg">
<g clip-path="url(#clip0_698_2821)">
<path d="M7.3335 6.41667C7.3335 7.38913 7.7198 8.32176 8.40744 9.00939C9.09507 9.69703 10.0277 10.0833 11.0002 10.0833C11.9726 10.0833 12.9053 9.69703 13.5929 9.00939C14.2805 8.32176 14.6668 7.38913 14.6668 6.41667C14.6668 5.44421 14.2805 4.51158 13.5929 3.82394C12.9053 3.13631 11.9726 2.75 11.0002 2.75C10.0277 2.75 9.09507 3.13631 8.40744 3.82394C7.7198 4.51158 7.3335 5.44421 7.3335 6.41667Z" stroke="#246CF9" stroke-width="1.5" stroke-linecap="round" stroke-linejoin="round"/>
<path d="M5.5 19.25V17.4167C5.5 16.4442 5.88631 15.5116 6.57394 14.8239C7.26158 14.1363 8.19421 13.75 9.16667 13.75H12.8333C13.8058 13.75 14.7384 14.1363 15.4261 14.8239C16.1137 15.5116 16.5 16.4442 16.5 17.4167V19.25" stroke="#246CF9" stroke-width="1.5" stroke-linecap="round" stroke-linejoin="round"/>
</g>
<defs>
<clipPath id="clip0_698_2821">
<rect width="22" height="22" fill="white"/>
</clipPath>
</defs>
</svg>
