<svg width="32" height="32" viewBox="0 0 32 32" fill="none" xmlns="http://www.w3.org/2000/svg">
<g clip-path="url(#clip0_389_1194)">
<path d="M5.33333 14.6666H10.6667C11.0203 14.6666 11.3594 14.8071 11.6095 15.0572C11.8595 15.3072 12 15.6463 12 16V26.6666C12 27.0202 11.8595 27.3594 11.6095 27.6094C11.3594 27.8595 11.0203 28 10.6667 28H8C6.97972 28 5.99798 27.6102 5.25565 26.9102C4.51332 26.2103 4.06652 25.2532 4.00667 24.2346L4 24V16C4 15.6463 4.14048 15.3072 4.39052 15.0572C4.64057 14.8071 4.97971 14.6666 5.33333 14.6666Z" fill="#F1F1F1"/>
<path d="M28.0001 16V24C28.0001 25.0202 27.6103 26.002 26.9104 26.7443C26.2104 27.4866 25.2533 27.9334 24.2347 27.9933L24.0001 28H16.0001C15.6465 28 15.3073 27.8595 15.0573 27.6094C14.8072 27.3594 14.6667 27.0202 14.6667 26.6666V16C14.6667 15.6463 14.8072 15.3072 15.0573 15.0572C15.3073 14.8071 15.6465 14.6666 16.0001 14.6666H26.6667C27.0204 14.6666 27.3595 14.8071 27.6096 15.0572C27.8596 15.3072 28.0001 15.6463 28.0001 16Z" fill="#F1F1F1"/>
<path d="M24.0001 4C25.0204 3.99994 26.0021 4.38977 26.7444 5.08971C27.4868 5.78966 27.9336 6.74681 27.9934 7.76533L28.0001 8V10.6667C28.0001 11.0203 27.8596 11.3594 27.6096 11.6095C27.3595 11.8595 27.0204 12 26.6667 12H16.0001C15.6465 12 15.3073 11.8595 15.0573 11.6095C14.8072 11.3594 14.6667 11.0203 14.6667 10.6667V5.33333C14.6667 4.97971 14.8072 4.64057 15.0573 4.39052C15.3073 4.14048 15.6465 4 16.0001 4H24.0001Z" fill="#F1F1F1"/>
<path d="M12 5.33333V10.6667C12 11.0203 11.8595 11.3594 11.6095 11.6095C11.3594 11.8595 11.0203 12 10.6667 12H5.33333C4.97971 12 4.64057 11.8595 4.39052 11.6095C4.14048 11.3594 4 11.0203 4 10.6667V8C3.99994 6.97972 4.38977 5.99798 5.08971 5.25565C5.78966 4.51332 6.74681 4.06652 7.76533 4.00667L8 4H10.6667C11.0203 4 11.3594 4.14048 11.6095 4.39052C11.8595 4.64057 12 4.97971 12 5.33333Z" fill="#F1F1F1"/>
</g>
<defs>
<clipPath id="clip0_389_1194">
<rect width="32" height="32" fill="white"/>
</clipPath>
</defs>
</svg>
