<svg width="36" height="36" viewBox="0 0 36 36" fill="none" xmlns="http://www.w3.org/2000/svg">
<g clip-path="url(#clip0_680_2013)">
<path d="M18 19.4583C19.1603 19.4583 20.2731 18.9974 21.0936 18.1769C21.9141 17.3565 22.375 16.2437 22.375 15.0833C22.375 13.923 21.9141 12.8102 21.0936 11.9898C20.2731 11.1693 19.1603 10.7083 18 10.7083C16.8397 10.7083 15.7269 11.1693 14.9064 11.9898C14.0859 12.8102 13.625 13.923 13.625 15.0833C13.625 16.2437 14.0859 17.3565 14.9064 18.1769C15.7269 18.9974 16.8397 19.4583 18 19.4583Z" stroke="#5D6588" stroke-width="2" stroke-linecap="round" stroke-linejoin="round"/>
<path d="M18 4.875C28.5 4.875 31.125 7.5 31.125 18C31.125 28.5 28.5 31.125 18 31.125C7.5 31.125 4.875 28.5 4.875 18C4.875 7.5 7.5 4.875 18 4.875Z" stroke="#5D6588" stroke-width="2" stroke-linecap="round" stroke-linejoin="round"/>
<path d="M9.25 29.7396V29.6667C9.25 28.1196 9.86458 26.6359 10.9585 25.5419C12.0525 24.4479 13.5362 23.8333 15.0833 23.8333H20.9167C22.4638 23.8333 23.9475 24.4479 25.0415 25.5419C26.1354 26.6359 26.75 28.1196 26.75 29.6667V29.7396" stroke="#5D6588" stroke-width="2" stroke-linecap="round" stroke-linejoin="round"/>
</g>
<defs>
<clipPath id="clip0_680_2013">
<rect width="35" height="35" fill="white" transform="translate(0.5 0.5)"/>
</clipPath>
</defs>
</svg>
